<svg xmlns="http://www.w3.org/2000/svg" width="1366" height="768" viewBox="0 0 1366 768" role="img" aria-label="GlobalMarketSense AI Dashboard Preview">
  <defs>
    <linearGradient id="bg" x1="0" y1="0" x2="1" y2="1">
      <stop offset="0%" stop-color="#0f172a" />
      <stop offset="100%" stop-color="#1e293b" />
    </linearGradient>
    <linearGradient id="card" x1="0" y1="0" x2="0" y2="1">
      <stop offset="0%" stop-color="#1f2937" />
      <stop offset="100%" stop-color="#111827" />
    </linearGradient>
  </defs>

  <rect width="1366" height="768" fill="url(#bg)" />

  <rect x="28" y="24" width="1310" height="72" rx="12" fill="#0b1220" opacity="0.95" />
  <text x="56" y="68" fill="#e5e7eb" font-size="30" font-family="Segoe UI, Arial, sans-serif" font-weight="700">
    GlobalMarketSense AI Dashboard
  </text>
  <text x="974" y="68" fill="#9ca3af" font-size="18" font-family="Segoe UI, Arial, sans-serif">
    US | India | Crypto Sentiment Intelligence
  </text>

  <rect x="28" y="116" width="320" height="620" rx="12" fill="#0b1220" opacity="0.95" />
  <text x="52" y="154" fill="#f3f4f6" font-size="22" font-family="Segoe UI, Arial, sans-serif" font-weight="600">Markets</text>
  <text x="52" y="190" fill="#cbd5e1" font-size="18" font-family="Segoe UI, Arial, sans-serif">• SP500</text>
  <text x="52" y="224" fill="#cbd5e1" font-size="18" font-family="Segoe UI, Arial, sans-serif">• NIFTY50</text>
  <text x="52" y="258" fill="#cbd5e1" font-size="18" font-family="Segoe UI, Arial, sans-serif">• SENSEX</text>
  <text x="52" y="292" fill="#cbd5e1" font-size="18" font-family="Segoe UI, Arial, sans-serif">• BTC</text>
  <text x="52" y="326" fill="#cbd5e1" font-size="18" font-family="Segoe UI, Arial, sans-serif">• NASDAQ</text>

  <rect x="372" y="116" width="462" height="296" rx="14" fill="url(#card)" stroke="#334155" />
  <text x="398" y="154" fill="#f3f4f6" font-size="20" font-family="Segoe UI, Arial, sans-serif" font-weight="600">Sentiment Trend (Daily)</text>
  <polyline points="400,360 470,330 540,344 610,288 680,302 750,246 812,262"
            fill="none" stroke="#22c55e" stroke-width="4" stroke-linecap="round" stroke-linejoin="round" />

  <rect x="852" y="116" width="486" height="296" rx="14" fill="url(#card)" stroke="#334155" />
  <text x="878" y="154" fill="#f3f4f6" font-size="20" font-family="Segoe UI, Arial, sans-serif" font-weight="600">Volatility Forecast</text>
  <polyline points="880,360 950,338 1020,320 1090,300 1160,284 1230,265 1310,248"
            fill="none" stroke="#60a5fa" stroke-width="4" stroke-linecap="round" stroke-linejoin="round" />

  <rect x="372" y="440" width="462" height="296" rx="14" fill="url(#card)" stroke="#334155" />
  <text x="398" y="478" fill="#f3f4f6" font-size="20" font-family="Segoe UI, Arial, sans-serif" font-weight="600">Cross-Market Correlation</text>
  <rect x="402" y="500" width="390" height="200" rx="8" fill="#0b1220" stroke="#1e293b" />
  <text x="430" y="620" fill="#94a3b8" font-size="16" font-family="Segoe UI, Arial, sans-serif">Heatmap Preview</text>

  <rect x="852" y="440" width="486" height="296" rx="14" fill="url(#card)" stroke="#334155" />
  <text x="878" y="478" fill="#f3f4f6" font-size="20" font-family="Segoe UI, Arial, sans-serif" font-weight="600">Risk & Divergence Signals</text>
  <rect x="880" y="510" width="430" height="32" rx="6" fill="#0b1220" />
  <rect x="880" y="556" width="430" height="32" rx="6" fill="#0b1220" />
  <rect x="880" y="602" width="430" height="32" rx="6" fill="#0b1220" />

  <text x="28" y="758" fill="#9ca3af" font-size="14" font-family="Segoe UI, Arial, sans-serif">
    Repository screenshot placeholder (SVG) - replace with a real app screenshot when available.
  </text>
</svg>
